{
	"scenes":[{
		"nodes":[0]
	}],
	"asset":{
		"version":"2.0",
		"generator":"Created using the official Cinema 4D glTF Exporter 1.000x284978"
	},
	"nodes":[{
		"name":"多边形",
		"children":[1,
		2,
		3,
		4,
		5]
	},
	{
		"name":"多边形-材质",
		"mesh":0
	},
	{
		"name":"多边形-材质",
		"mesh":1
	},
	{
		"name":"多边形-材质",
		"mesh":2
	},
	{
		"name":"多边形-材质",
		"mesh":3
	},
	{
		"name":"多边形-材质",
		"mesh":4
	}],
	"meshes":[{
		"name":"多边形-材质",
		"primitives":[{
			"attributes":{
				"POSITION":1,
				"NORMAL":2,
				"TEXCOORD_0":3
			},
			"indices":0,
			"material":0
		}]
	},
	{
		"name":"多边形-材质",
		"primitives":[{
			"attributes":{
				"POSITION":5,
				"NORMAL":6,
				"TEXCOORD_0":7
			},
			"indices":4,
			"material":0
		}]
	},
	{
		"name":"多边形-材质",
		"primitives":[{
			"attributes":{
				"POSITION":9,
				"NORMAL":10,
				"TEXCOORD_0":11
			},
			"indices":8,
			"material":0
		}]
	},
	{
		"name":"多边形-材质",
		"primitives":[{
			"attributes":{
				"POSITION":13,
				"NORMAL":14,
				"TEXCOORD_0":15
			},
			"indices":12,
			"material":0
		}]
	},
	{
		"name":"多边形-材质",
		"primitives":[{
			"attributes":{
				"POSITION":17,
				"NORMAL":18,
				"TEXCOORD_0":19
			},
			"indices":16,
			"material":0
		}]
	}],
	"accessors":[{
		"bufferView":0,
		"type":"SCALAR",
		"componentType":5123,
		"count":48,
		"byteOffset":0,
		"min":[0],
		"max":[14]
	},
	{
		"bufferView":1,
		"type":"VEC3",
		"componentType":5126,
		"count":15,
		"byteOffset":0,
		"min":[-0.40010008215904238,
		-6.144818875952751e-9,
		-0.4999749958515167],
		"max":[0.5998499393463135,
		0.5,
		0.4999749958515167]
	},
	{
		"bufferView":1,
		"type":"VEC3",
		"componentType":5126,
		"count":15,
		"byteOffset":12,
		"min":[-0.9998750686645508,
		0.0,
		-0.9998750686645508],
		"max":[0.9998750686645508,
		1.0,
		0.9998750686645508]
	},
	{
		"bufferView":1,
		"type":"VEC2",
		"componentType":5126,
		"count":15,
		"byteOffset":24,
		"min":[-1.0,
		-2.0],
		"max":[0.0,
		0.0]
	},
	{
		"bufferView":2,
		"type":"SCALAR",
		"componentType":5123,
		"count":720,
		"byteOffset":0,
		"min":[0],
		"max":[142]
	},
	{
		"bufferView":3,
		"type":"VEC3",
		"componentType":5126,
		"count":143,
		"byteOffset":0,
		"min":[-1.428012490272522,
		-0.07999999821186066,
		-1.5278874635696412],
		"max":[1.6277624368667603,
		1.6261818408966065,
		1.5278874635696412]
	},
	{
		"bufferView":3,
		"type":"VEC3",
		"componentType":5126,
		"count":143,
		"byteOffset":12,
		"min":[-1.0,
		-0.987281322479248,
		-0.9999688267707825],
		"max":[0.9659063220024109,
		0.987281322479248,
		1.0]
	},
	{
		"bufferView":3,
		"type":"VEC2",
		"componentType":5126,
		"count":143,
		"byteOffset":24,
		"min":[-1.0,
		-1.0],
		"max":[0.0,
		0.0]
	},
	{
		"bufferView":4,
		"type":"SCALAR",
		"componentType":5123,
		"count":41400,
		"byteOffset":0,
		"min":[0],
		"max":[8210]
	},
	{
		"bufferView":5,
		"type":"VEC3",
		"componentType":5126,
		"count":8211,
		"byteOffset":0,
		"min":[-5.6398024559021,
		0.49860531091690066,
		-5.91863489151001],
		"max":[5.389994144439697,
		10.271068572998047,
		6.013377666473389]
	},
	{
		"bufferView":5,
		"type":"VEC3",
		"componentType":5126,
		"count":8211,
		"byteOffset":12,
		"min":[-1.0,
		-0.7863125205039978,
		-0.9010313153266907],
		"max":[0.9949687719345093,
		0.9998750686645508,
		0.9089375138282776]
	},
	{
		"bufferView":5,
		"type":"VEC2",
		"componentType":5126,
		"count":8211,
		"byteOffset":24,
		"min":[-1.0,
		-1.0],
		"max":[0.0,
		0.0]
	},
	{
		"bufferView":6,
		"type":"SCALAR",
		"componentType":5123,
		"count":588,
		"byteOffset":0,
		"min":[0],
		"max":[167]
	},
	{
		"bufferView":7,
		"type":"VEC3",
		"componentType":5126,
		"count":168,
		"byteOffset":0,
		"min":[-7.088663578033447,
		-1.308253526687622,
		-7.775866985321045],
		"max":[8.073174476623536,
		0.5160220861434937,
		7.775866985321045]
	},
	{
		"bufferView":7,
		"type":"VEC3",
		"componentType":5126,
		"count":168,
		"byteOffset":12,
		"min":[-0.39528125524520876,
		0.917718768119812,
		-0.39396876096725466],
		"max":[0.37281250953674319,
		0.9918438196182251,
		0.3875312805175781]
	},
	{
		"bufferView":7,
		"type":"VEC2",
		"componentType":5126,
		"count":168,
		"byteOffset":24,
		"min":[-1.0,
		-1.0],
		"max":[0.0,
		0.0]
	},
	{
		"bufferView":8,
		"type":"SCALAR",
		"componentType":5123,
		"count":14076,
		"byteOffset":0,
		"min":[0],
		"max":[2855]
	},
	{
		"bufferView":9,
		"type":"VEC3",
		"componentType":5126,
		"count":2856,
		"byteOffset":0,
		"min":[-17.649459838867189,
		-5.72702169418335,
		-18.764984130859376],
		"max":[19.0920467376709,
		18.39240264892578,
		18.394763946533204]
	},
	{
		"bufferView":9,
		"type":"VEC3",
		"componentType":5126,
		"count":2856,
		"byteOffset":12,
		"min":[-0.9644375443458557,
		0.16196875274181367,
		-0.9414063096046448],
		"max":[0.9415000677108765,
		0.9999688267707825,
		0.9609375596046448]
	},
	{
		"bufferView":9,
		"type":"VEC2",
		"componentType":5126,
		"count":2856,
		"byteOffset":24,
		"min":[-1.0,
		-1.2300000190734864],
		"max":[0.029999997466802598,
		0.0]
	}],
	"bufferViews":[{
		"buffer":0,
		"byteOffset":0,
		"byteLength":96,
		"target":34963
	},
	{
		"buffer":0,
		"byteOffset":96,
		"byteLength":480,
		"target":34962,
		"byteStride":32
	},
	{
		"buffer":1,
		"byteOffset":0,
		"byteLength":1440,
		"target":34963
	},
	{
		"buffer":1,
		"byteOffset":1440,
		"byteLength":4576,
		"target":34962,
		"byteStride":32
	},
	{
		"buffer":2,
		"byteOffset":0,
		"byteLength":82800,
		"target":34963
	},
	{
		"buffer":2,
		"byteOffset":82800,
		"byteLength":262752,
		"target":34962,
		"byteStride":32
	},
	{
		"buffer":3,
		"byteOffset":0,
		"byteLength":1176,
		"target":34963
	},
	{
		"buffer":3,
		"byteOffset":1176,
		"byteLength":5376,
		"target":34962,
		"byteStride":32
	},
	{
		"buffer":4,
		"byteOffset":0,
		"byteLength":28152,
		"target":34963
	},
	{
		"buffer":4,
		"byteOffset":28152,
		"byteLength":91392,
		"target":34962,
		"byteStride":32
	}],
	"buffers":[{
		"uri":"data:application/octet-stream;base64,",
		"byteLength":576
	},
	{
		"uri":"data:application/octet-stream;base64,",
		"byteLength":6016
	},
	{
		"uri":"data:application/octet-stream;base64,",
		"byteLength":345552
	},
	{
		"uri":"data:application/octet-stream;base64,",
		"byteLength":6552
	},
	{
		"uri":"data:application/octet-stream;base64,",
		"byteLength":119544
	}],
	"materials":[{
		"pbrMetallicRoughness":{
			"baseColorFactor":[0.11,
			0.11,
			0.11,
			0.29000000000000006],
			"metallicFactor":0.02,
			"roughnessFactor":0.43
		},
		"emissiveFactor":[0.0,
		0.0,
		0.0],
		"alphaMode":"BLEND",
		"doubleSided":false,
		"name":"材质"
	}]
}